<?xml version="1.0" encoding="UTF-8"?>
<svg version="1.1" xmlns="http://www.w3.org/2000/svg" width="408" height="464">
<path d="M0 0 C3.375 -0.1875 3.375 -0.1875 7 0 C9.07868516 3.11802773 9.41719628 4.59627091 9.91381836 8.22387695 C10.06415024 9.29382401 10.21448212 10.36377106 10.36936951 11.46614075 C10.52462601 12.62844711 10.67988251 13.79075348 10.83984375 14.98828125 C11.00746719 16.19703415 11.17509064 17.40578705 11.34779358 18.65116882 C11.88495465 22.53732001 12.41135997 26.42484292 12.9375 30.3125 C13.28770617 32.85882106 13.63861019 35.40504624 13.99023438 37.95117188 C14.67766956 42.93752129 15.35882061 47.92466484 16.03466797 52.91259766 C16.6515029 57.46097411 17.27997832 62.00740928 17.92236328 66.55224609 C18.13403893 68.06240547 18.13403893 68.06240547 18.34999084 69.60307312 C18.61013013 71.45624248 18.87327218 73.30899406 19.14012146 75.16120911 C19.74264061 79.48127539 20.14170547 83.62401059 20 88 C20.66 88 21.32 88 22 88 C22.03303223 87.43071777 22.06606445 86.86143555 22.10009766 86.27490234 C22.74842774 77.47805153 24.30509815 68.87328067 25.90136719 60.20947266 C26.3774656 57.61154596 26.83740173 55.01106825 27.296875 52.41015625 C27.60058316 50.74461279 27.90523698 49.07924143 28.2109375 47.4140625 C28.34543304 46.64317291 28.47992859 45.87228333 28.61849976 45.07803345 C29.41501602 40.8539093 30.32832656 37.49138181 33 34 C35.4375 33.375 35.4375 33.375 38 34 C42.30268977 38.26785018 43.8205944 43.38708119 45.6875 49 C46.14866211 50.33417969 46.14866211 50.33417969 46.61914062 51.6953125 C48.02810294 55.82662431 49.13923482 59.69617412 50 64 C68.48 64 86.96 64 106 64 C105.88148236 52.04825598 105.88148236 52.04825598 105.72973633 40.09692383 C105.72096958 38.59196614 105.71332609 37.08700131 105.70703125 35.58203125 C105.6840094 34.42205627 105.6840094 34.42205627 105.66052246 33.23864746 C105.65829601 28.62914623 106.14109444 25.66803804 109 22 C112.27638139 19.63412285 115.47443524 19.67081578 119.4375 19.625 C120.54996094 19.59664062 121.66242188 19.56828125 122.80859375 19.5390625 C126.71749678 20.10362867 128.27054113 21.17907778 131 24 C133.20339689 27.96746618 133.37360228 31.82924066 133.625 36.3125 C133.73714844 38.19388672 133.73714844 38.19388672 133.8515625 40.11328125 C133.90054687 41.06589844 133.94953125 42.01851562 134 43 C134.58910156 42.5153125 135.17820312 42.030625 135.78515625 41.53125 C139.02493614 39.29140217 141.1489912 39.45950754 145 40 C147.9375 41.625 147.9375 41.625 150 45 C150.41481696 49.69594076 150.28626268 54.29893062 150 59 C151.2375 58.9175 152.475 58.835 153.75 58.75 C156.74424661 58.55038356 157.7593795 58.8269884 160.23828125 60.609375 C162.53788679 63.72990403 162.50363308 65.65546366 162.4375 69.5 C162.43556641 71.18609375 162.43556641 71.18609375 162.43359375 72.90625 C161.963184 76.26268717 161.49821842 77.72286286 159 80 C156.73828125 80.390625 156.73828125 80.390625 154.3125 80.25 C153.50425781 80.21390625 152.69601562 80.1778125 151.86328125 80.140625 C151.24839844 80.09421875 150.63351562 80.0478125 150 80 C150.03480469 80.96421875 150.06960938 81.9284375 150.10546875 82.921875 C150.13253906 84.18515625 150.15960938 85.4484375 150.1875 86.75 C150.22230469 88.00296875 150.25710938 89.2559375 150.29296875 90.546875 C149.9856582 94.16904203 149.58488902 95.51219602 147 98 C142.40947703 99.4281627 139.38569773 98.83587347 135 97 C134.67 96.67 134.34 96.34 134 96 C133.96261719 96.94101562 133.92523438 97.88203125 133.88671875 98.8515625 C133.82097656 100.09679687 133.75523437 101.34203125 133.6875 102.625 C133.62949219 103.85476563 133.57148438 105.08453125 133.51171875 106.3515625 C132.84940618 111.07369942 131.54752106 114.40179593 128.2109375 117.84765625 C123.56239057 120.27048548 118.0767954 119.58578409 113 119 C109.7576247 117.74431648 107.5925432 116.18508639 106 113 C105.91316555 110.22839374 105.8844421 107.48225235 105.90234375 104.7109375 C105.90446617 103.48330185 105.90446617 103.48330185 105.90663147 102.23086548 C105.9122371 99.61220675 105.92479052 96.99363296 105.9375 94.375 C105.94251428 92.60156373 105.94707731 90.82812613 105.95117188 89.0546875 C105.96220836 84.70309218 105.97947675 80.3515605 106 76 C105.2446698 76.01110306 104.4893396 76.02220612 103.71112061 76.03364563 C96.58981062 76.13386706 89.46884294 76.20997367 82.34701157 76.25906086 C78.68562466 76.28514591 75.02482084 76.32052148 71.36376953 76.37719727 C67.82999196 76.43155986 64.29677486 76.46142876 60.76261139 76.47438622 C58.75941972 76.48810967 56.75645332 76.52713702 54.75360107 76.56648254 C53.53263733 76.5668602 52.31167358 76.56723785 51.05371094 76.56762695 C49.97893494 76.57873001 48.90415894 76.58983307 47.79681396 76.60127258 C44.0358873 75.79273039 43.0490216 74.16317385 41 71 C39.77283308 68.37624385 38.9329405 65.75217448 38 63 C37.11712898 67.14419466 36.24418494 71.29041369 35.375 75.4375 C34.97220825 77.35743774 34.97220825 77.35743774 34.5612793 79.31616211 C33.05365865 86.5704155 31.64608252 93.83391512 30.37109375 101.1328125 C30.23954895 101.88109818 30.10800415 102.62938385 29.97247314 103.40034485 C29.33104439 107.05874014 28.70294683 110.71875139 28.09326172 114.38256836 C27.86074123 115.7251652 27.62784967 117.06769784 27.39453125 118.41015625 C27.19706299 119.58715088 26.99959473 120.76414551 26.79614258 121.97680664 C25.99784998 125.00816426 25.06409335 126.67981213 23 129 C20.69 128.67 18.38 128.34 16 128 C13.38410845 118.59701569 11.85292103 109.16057657 10.51953125 99.515625 C10.30017201 97.96327996 10.080247 96.41101478 9.85978699 94.85882568 C9.28703551 90.81555333 8.7218658 86.77125805 8.15838623 82.72668457 C7.57965784 78.58275642 6.9936026 74.43986504 6.40820312 70.296875 C5.26505015 62.19890153 4.12992218 54.09983014 3 46 C1.39186729 51.48790644 1.39186729 51.48790644 0.16210938 57.06762695 C0.02857056 57.78138992 -0.10496826 58.49515289 -0.24255371 59.23054504 C-0.37907349 59.97559799 -0.51559326 60.72065094 -0.65625 61.48828125 C-0.95937622 63.09705407 -1.2627693 64.70577662 -1.56640625 66.31445312 C-2.03690375 68.82665306 -2.50493114 71.33925103 -2.96826172 73.8527832 C-3.41990636 76.29512385 -3.88112898 78.73549953 -4.34375 81.17578125 C-4.48026978 81.93095535 -4.61678955 82.68612946 -4.75744629 83.46418762 C-5.77313082 88.77313082 -5.77313082 88.77313082 -8 91 C-11.31640625 91.31640625 -11.31640625 91.31640625 -15 90 C-17.2635575 86.55266839 -18.55935505 82.80828974 -19.9375 78.9375 C-20.33517578 77.89271484 -20.73285156 76.84792969 -21.14257812 75.77148438 C-22.12114051 73.18949448 -23.07191672 70.60047098 -24 68 C-24.4125 68.5775 -24.825 69.155 -25.25 69.75 C-25.8275 70.4925 -26.405 71.235 -27 72 C-27.52883789 72.73444336 -28.05767578 73.46888672 -28.60253906 74.22558594 C-32.31563358 76.97372962 -35.86149555 76.49660708 -40.359375 76.390625 C-41.26375305 76.38496521 -42.1681311 76.37930542 -43.09991455 76.37347412 C-45.98381853 76.35111248 -48.86647261 76.30091686 -51.75 76.25 C-53.70701329 76.22993471 -55.66404608 76.21168399 -57.62109375 76.1953125 C-62.41454289 76.15124839 -67.20705965 76.08222252 -72 76 C-71.97381592 77.09465576 -71.94763184 78.18931152 -71.9206543 79.31713867 C-71.82996781 83.38903258 -71.77268451 87.46083776 -71.7253418 91.53344727 C-71.70023939 93.29401676 -71.66614972 95.05448247 -71.62280273 96.81469727 C-71.56195885 99.34938179 -71.53374887 101.88268575 -71.51171875 104.41796875 C-71.48591232 105.20149216 -71.4601059 105.98501556 -71.43351746 106.7922821 C-71.43134591 111.049578 -71.62331983 112.53432039 -74.40551758 115.97387695 C-79.54025389 119.98377407 -84.65530656 119.62040679 -91 119 C-94.19999014 117.73794781 -96.42518973 116.14962054 -98 113 C-98.15004973 111.6265365 -98.24838006 110.2471474 -98.31640625 108.8671875 C-98.35830078 108.06152344 -98.40019531 107.25585938 -98.44335938 106.42578125 C-98.48267578 105.58402344 -98.52199219 104.74226563 -98.5625 103.875 C-98.60568359 103.02550781 -98.64886719 102.17601562 -98.69335938 101.30078125 C-98.79954236 99.20071777 -98.90028497 97.10038052 -99 95 C-99.42539063 95.47824219 -99.85078125 95.95648438 -100.2890625 96.44921875 C-102.96566876 98.87527511 -105.47111097 98.81747126 -109 99 C-112.88192461 97.9648201 -113.72249908 97.41625138 -116 94 C-116.1953125 90.64453125 -116.1953125 90.64453125 -116.125 86.8125 C-116.10695313 85.54019531 -116.08890625 84.26789063 -116.0703125 82.95703125 C-116.04710938 81.98121094 -116.02390625 81.00539063 -116 80 C-116.61488281 80.04640625 -117.22976562 80.0928125 -117.86328125 80.140625 C-118.67152344 80.17671875 -119.47976562 80.2128125 -120.3125 80.25 C-121.11300781 80.29640625 -121.91351563 80.3428125 -122.73828125 80.390625 C-125 80 -125 80 -126.765625 78.42578125 C-128.42691661 75.1610278 -128.43366114 72.58825418 -128.4375 68.9375 C-128.46650391 67.09478516 -128.46650391 67.09478516 -128.49609375 65.21484375 C-128 62 -128 62 -126.23828125 60.078125 C-122.68315594 58.36570862 -119.90687162 58.80465642 -116 59 C-116.05220703 57.55367187 -116.05220703 57.55367187 -116.10546875 56.078125 C-116.13253906 54.81484375 -116.15960938 53.5515625 -116.1875 52.25 C-116.23970703 50.37054688 -116.23970703 50.37054688 -116.29296875 48.453125 C-115.98426317 44.81451525 -115.68082221 43.43171926 -113 41 C-110.87890625 40.3203125 -110.87890625 40.3203125 -108.5625 40.125 C-107.80066406 40.04507813 -107.03882812 39.96515625 -106.25390625 39.8828125 C-103.66346392 40.01749754 -102.17768959 40.61202202 -100 42 C-99.67 42.66 -99.34 43.32 -99 44 C-98.96261719 42.83082031 -98.92523438 41.66164062 -98.88671875 40.45703125 C-98.8210372 38.90882325 -98.75459061 37.36064758 -98.6875 35.8125 C-98.66494141 35.04357422 -98.64238281 34.27464844 -98.61914062 33.48242188 C-98.4034361 28.91340775 -98.01359124 25.66182369 -95 22 C-91.82257812 19.73822227 -88.89718053 19.70200699 -85.0625 19.6875 C-83.53302734 19.66236328 -83.53302734 19.66236328 -81.97265625 19.63671875 C-78.54221755 20.0559445 -76.72853404 20.89784247 -74 23 C-71.29390897 26.78477955 -71.74640705 31.03152103 -71.8046875 35.484375 C-71.8075174 36.29996887 -71.81034729 37.11556274 -71.81326294 37.95587158 C-71.82443442 40.55406528 -71.84953325 43.15191095 -71.875 45.75 C-71.88503373 47.51431793 -71.89415889 49.27864128 -71.90234375 51.04296875 C-71.92266008 55.36222027 -71.96181385 59.68072176 -72 64 C-60.12 63.67 -48.24 63.34 -36 63 C-33.03 57.39 -30.06 51.78 -27 46 C-20 47 -20 47 -18.546875 48.56640625 C-18.28390625 49.22511719 -18.0209375 49.88382813 -17.75 50.5625 C-17.34007812 51.52349609 -17.34007812 51.52349609 -16.921875 52.50390625 C-16.61765625 53.32761719 -16.3134375 54.15132812 -16 55 C-15.48137824 56.38555401 -14.96212676 57.77087241 -14.44238281 59.15600586 C-14.17226379 59.87598251 -13.90214478 60.59595917 -13.62384033 61.3377533 C-13.41797302 61.88629471 -13.21210571 62.43483612 -13 63 C-12.88138107 62.31397202 -12.76276215 61.62794403 -12.64054871 60.92112732 C-11.51694627 54.43196502 -10.3850264 47.94431408 -9.24392223 41.45820522 C-8.65766571 38.12419334 -8.07455321 34.78969694 -7.4987793 31.45385742 C-6.83407475 27.61230877 -6.15833849 23.77283836 -5.48046875 19.93359375 C-5.17558784 18.15038979 -5.17558784 18.15038979 -4.86454773 16.3311615 C-3.82157762 10.48666848 -2.65932212 5.3220233 0 0 Z " fill="#942CF1" transform="translate(188,161)"/>
<path d="M0 0 C0.88488602 -0.0049649 1.76977203 -0.00992981 2.68147278 -0.01504517 C5.6226173 -0.02970074 8.56370769 -0.03647849 11.50488281 -0.04199219 C13.55356853 -0.04774593 15.60225424 -0.05350364 17.65093994 -0.05926514 C21.95853934 -0.06978822 26.26612002 -0.07562065 30.57373047 -0.07910156 C36.06083387 -0.08455403 41.54768506 -0.10850634 47.03470993 -0.13707352 C51.27470585 -0.15582573 55.51464295 -0.1609124 59.75467682 -0.16243744 C61.77503063 -0.16544204 63.79538397 -0.17339531 65.81569672 -0.18662262 C85.66458028 -0.30717528 102.99851335 1.28646147 117.83300781 15.91113281 C132.33700148 30.95361213 138.05787396 49.72663722 137.71191406 70.41503906 C135.93116217 96.68797845 135.93116217 96.68797845 129.45800781 103.16113281 C127.00970355 103.24957074 124.58980182 103.27642033 122.14160156 103.25878906 C121.41054703 103.25737411 120.67949249 103.25595917 119.92628479 103.25450134 C117.58265149 103.24888689 115.23911242 103.23633203 112.89550781 103.22363281 C111.31022273 103.21861967 109.72493616 103.21405644 108.13964844 103.20996094 C104.24573171 103.19891278 100.35188576 103.18163853 96.45800781 103.16113281 C91.63163498 94.11448978 91.63163498 94.11448978 91.45800781 90.16113281 C92.41894531 87.66113281 92.41894531 87.66113281 93.83300781 85.16113281 C98.50203126 76.81427526 98.75071132 67.11262791 96.33300781 57.91113281 C93.5336758 49.83713354 89.15738388 44.97923095 81.60644531 41.07128906 C77.844946 39.47778117 74.48873575 39.0278376 70.4140625 38.95581055 C69.41332703 38.93586533 68.41259155 38.9159201 67.38153076 38.89537048 C66.30848694 38.87865799 65.23544312 38.8619455 64.12988281 38.84472656 C63.02574036 38.82394547 61.9215979 38.80316437 60.78399658 38.78175354 C57.25872998 38.71639635 53.73338922 38.65743717 50.20800781 38.59863281 C47.81737516 38.55543446 45.42674999 38.51181974 43.03613281 38.46777344 C37.1768327 38.35994604 31.31747587 38.26076921 25.45800781 38.16113281 C25.45800781 54.33113281 25.45800781 70.50113281 25.45800781 87.16113281 C24.13800781 86.50113281 22.81800781 85.84113281 21.45800781 85.16113281 C19.47800781 85.16113281 17.49800781 85.16113281 15.45800781 85.16113281 C10.50800781 94.07113281 10.50800781 94.07113281 5.45800781 103.16113281 C-1.14199219 103.16113281 -7.74199219 103.16113281 -14.54199219 103.16113281 C-14.63234062 90.60026882 -14.70573571 78.03962045 -14.74924088 65.47850513 C-14.77012056 59.64594773 -14.79844567 53.81362405 -14.84375 47.98120117 C-14.8871934 42.35316862 -14.91112642 36.72536097 -14.92150116 31.09717369 C-14.92889518 28.94934231 -14.94333386 26.80152332 -14.96491241 24.65378761 C-14.99392585 21.64660616 -14.99794898 18.64035541 -14.99609375 15.63305664 C-15.01047485 14.74401138 -15.02485596 13.85496613 -15.03967285 12.9389801 C-15.01208333 8.80934377 -14.88399209 6.70547306 -12.63861084 3.13163757 C-8.74223481 -0.5303672 -5.09218767 0.00677311 0 0 Z " fill="#942CF2" transform="translate(144.5419921875,116.8388671875)"/>
<path d="M0 0 C0.66 0 1.32 0 2 0 C6.55315797 11.25247536 7.72681373 20.87627985 7.59375 32.9140625 C7.59203369 34.58458367 7.59210985 36.25510754 7.59387207 37.92562866 C7.59223402 41.39323363 7.57380152 44.86018011 7.54199219 48.32763672 C7.50200673 52.76499671 7.49799216 57.20151072 7.50545502 61.63901711 C7.50852439 65.07404293 7.4964105 68.50887941 7.47932434 71.9438591 C7.47231668 73.58087351 7.46916709 75.21790932 7.47001648 76.85493851 C7.4682154 79.13497098 7.44681859 81.41399086 7.41992188 83.69384766 C7.41150269 84.98763336 7.4030835 86.28141907 7.39440918 87.6144104 C6.97086004 91.25013607 6.21077344 93.11437128 4 96 C-0.72560595 99.15040396 -5.77879434 98.41002437 -11.34179688 98.42553711 C-13.36191529 98.43742301 -15.37896482 98.48659792 -17.3984375 98.53710938 C-18.6771875 98.54419922 -19.9559375 98.55128906 -21.2734375 98.55859375 C-23.02793213 98.57877563 -23.02793213 98.57877563 -24.81787109 98.59936523 C-29.08713184 97.79523487 -30.34347757 96.41405921 -33 93 C-33.46890269 89.92575713 -33.63607488 87.41898962 -33.56762695 84.35424805 C-33.56872215 83.06568153 -33.56872215 83.06568153 -33.56983948 81.75108337 C-33.56636484 78.92064571 -33.52751033 76.09186776 -33.48828125 73.26171875 C-33.47895267 71.29589232 -33.47183677 69.33005425 -33.46684265 67.36421204 C-33.44777648 62.19688675 -33.39867863 57.03026718 -33.34332275 51.86322021 C-33.29212226 46.58794704 -33.26932688 41.31255954 -33.24414062 36.03710938 C-33.19055979 25.69109664 -33.10525131 15.34560707 -33 5 C-31.71367676 4.98598145 -31.71367676 4.98598145 -30.40136719 4.97167969 C-27.21027321 4.92758709 -24.02013244 4.86593944 -20.82958984 4.79248047 C-19.45048349 4.76430901 -18.07121682 4.74307528 -16.69189453 4.72900391 C-14.70577051 4.70752455 -12.72000091 4.65876868 -10.734375 4.609375 C-9.54038086 4.58842773 -8.34638672 4.56748047 -7.11621094 4.54589844 C-3.44031402 3.9019541 -2.3950816 2.75743206 0 0 Z " fill="#942CF3" transform="translate(163,237)"/>
<path d="M0 0 C2 1 4 2 6 3 C8.37123246 3.23029956 10.74741943 3.41119942 13.125 3.5625 C14.40632813 3.64628906 15.68765625 3.73007813 17.0078125 3.81640625 C18.48894531 3.90728516 18.48894531 3.90728516 20 4 C26.16228352 16.78382181 32.32290248 29.56828324 38.4375 42.375 C42.81039113 51.53194378 47.21260726 60.67454518 51.625 69.8125 C51.93726532 70.45926697 52.24953064 71.10603394 52.57125854 71.7723999 C55.75527536 78.40107548 55.75527536 78.40107548 59 85 C59.58265136 92.22487688 59.58265136 92.22487688 57.42431641 95.09619141 C54.12356732 97.68826002 51.95200475 97.51665234 47.78515625 97.53125 C47.09240097 97.5350769 46.39964569 97.53890381 45.68589783 97.54284668 C44.22425886 97.54556212 42.76257099 97.53822639 41.30102539 97.52148438 C39.07261846 97.50009711 36.84744664 97.52127643 34.61914062 97.546875 C33.19530543 97.54423102 31.77147224 97.53910457 30.34765625 97.53125 C29.05867432 97.52673828 27.76969238 97.52222656 26.44165039 97.51757812 C22.2414059 96.88591761 20.84800262 96.15039499 18 93 C16.24877929 89.90639516 14.88922655 86.68823382 13.53125 83.40625 C13.12845825 82.4637439 12.7256665 81.52123779 12.31066895 80.5501709 C11.02736676 77.53880614 9.76351626 74.51971226 8.5 71.5 C7.65100285 69.49946342 6.80075463 67.49945728 5.94921875 65.5 C4.32514267 61.68129336 2.71432434 57.85745153 1.11499023 54.02832031 C-0.13292073 51.04388805 -1.40060076 48.07253968 -2.72241211 45.12011719 C-3.18397705 44.07500977 -3.64554199 43.02990234 -4.12109375 41.953125 C-4.50450928 41.10911133 -4.8879248 40.26509766 -5.28295898 39.39550781 C-6.6303832 34.89400069 -5.48631741 30.70087979 -4.46630859 26.21923828 C-3.42083482 21.24365889 -2.69009065 16.20490914 -1.875 11.1875 C-1.5195543 9.05576821 -1.16288297 6.92424022 -0.8046875 4.79296875 C-0.64983887 3.8702417 -0.49499023 2.94751465 -0.33544922 1.99682617 C-0.22475098 1.33787354 -0.11405273 0.6789209 0 0 Z " fill="#942CF2" transform="translate(226,238)"/>
<path d="M0 0 C0.33 0 0.66 0 1 0 C1.17092851 4.13988087 1.33103185 8.28001511 1.48217773 12.4206543 C1.53472283 13.82180351 1.58995288 15.22285526 1.64819336 16.6237793 C2.7622356 43.58360141 2.7622356 43.58360141 -2 52 C-2.33 51.34 -2.66 50.68 -3 50 C-2.67 49.34 -2.34 48.68 -2 48 C-1.88717804 46.53031442 -1.83343521 45.0558632 -1.81054688 43.58203125 C-1.79382935 42.66768311 -1.77711182 41.75333496 -1.7598877 40.8112793 C-1.74631226 39.82168213 -1.73273682 38.83208496 -1.71875 37.8125 C-1.70034058 36.79905518 -1.68193115 35.78561035 -1.66296387 34.74145508 C-1.60409174 31.49436352 -1.55132237 28.24721915 -1.5 25 C-1.43249756 20.72905119 -1.35882949 16.45827631 -1.28125 12.1875 C-1.26767456 11.19790283 -1.25409912 10.20830566 -1.2401123 9.1887207 C-1.22339478 8.27437256 -1.20667725 7.36002441 -1.18945312 6.41796875 C-1.17692505 5.61125732 -1.16439697 4.8045459 -1.15148926 3.97338867 C-1 2 -1 2 0 0 Z " fill="#7D21D7" transform="translate(320,225)"/>
<path d="M0 0 C0.33 0 0.66 0 1 0 C1.89556188 11.13252306 1.97350957 21.87203671 1 33 C0.34 32.67 -0.32 32.34 -1 32 C-1.20638953 9.19872014 -1.20638953 9.19872014 0 0 Z " fill="#7E1FD5" transform="translate(320,190)"/>
<path d="M0 0 C0.33 0 0.66 0 1 0 C1.5067183 3.54073904 2.00417029 7.08272111 2.5 10.625 C2.64308594 11.62402344 2.78617188 12.62304688 2.93359375 13.65234375 C3.60352182 18.46944557 4.19978289 23.12196787 4 28 C4.66 28 5.32 28 6 28 C6.33 26.68 6.66 25.36 7 24 C7.37211538 30.57403846 7.37211538 30.57403846 5.48828125 32.73046875 C4.99714844 33.14941406 4.50601563 33.56835938 4 34 C-0.42667509 10.50094817 -0.42667509 10.50094817 0 0 Z " fill="#8926E0" transform="translate(204,221)"/>
<path d="M0 0 C3.875 1.75 3.875 1.75 5 4 C3.68 3.67 2.36 3.34 1 3 C1.04125 4.175625 1.0825 5.35125 1.125 6.5625 C1.13983635 10.72409674 0.31170778 14.06487667 -1 18 C-1.33 18 -1.66 18 -2 18 C-1.42085333 11.98673249 -0.77662055 5.99107278 0 0 Z " fill="#8423E3" transform="translate(226,238)"/>
</svg>
